<?xml version="1.0" encoding="UTF-8"?>
<svg xmlns="http://www.w3.org/2000/svg" xmlns:xlink="http://www.w3.org/1999/xlink" viewBox="0 0 32 32" version="1.1" width="32px" height="32px">
<g id="surface1">
<path style=" " d="M 10 7 L 10 10 L 4 10 L 4 25 L 28 25 L 28 10 L 22 10 L 22 7 Z M 12 9 L 20 9 L 20 12 L 26 12 L 26 23 L 6 23 L 6 12 L 12 12 Z M 16 12 C 13.25 12 11 14.25 11 17 C 11 19.75 13.25 22 16 22 C 18.75 22 21 19.75 21 17 C 21 14.25 18.75 12 16 12 Z M 24 13 C 23.449219 13 23 13.449219 23 14 C 23 14.550781 23.449219 15 24 15 C 24.550781 15 25 14.550781 25 14 C 25 13.449219 24.550781 13 24 13 Z M 16 14 C 17.667969 14 19 15.332031 19 17 C 19 18.667969 17.667969 20 16 20 C 14.332031 20 13 18.667969 13 17 C 13 15.332031 14.332031 14 16 14 Z "/>
</g>
</svg>
