<?xml version="1.0" encoding="UTF-8"?>
<svg xmlns="http://www.w3.org/2000/svg" xmlns:xlink="http://www.w3.org/1999/xlink" viewBox="0 0 32 32" version="1.1" width="32px" height="32px">
<g id="surface1">
<path style=" " d="M 16 3 C 8.832031 3 3 8.832031 3 16 C 3 23.167969 8.832031 29 16 29 C 23.167969 29 29 23.167969 29 16 C 29 8.832031 23.167969 3 16 3 Z M 14.875 5.0625 C 14.917969 5.058594 14.957031 5.066406 15 5.0625 L 15 6 L 17 6 L 17 5.0625 C 22.285156 5.539063 26.460938 9.714844 26.9375 15 L 26 15 L 26 17 L 26.9375 17 C 26.460938 22.285156 22.285156 26.460938 17 26.9375 L 17 26 L 15 26 L 15 26.9375 C 9.714844 26.460938 5.539063 22.285156 5.0625 17 L 6 17 L 6 15 L 5.0625 15 C 5.535156 9.757813 9.648438 5.589844 14.875 5.0625 Z M 22.09375 9.90625 L 13.59375 13.59375 L 9.90625 22.09375 L 18.40625 18.40625 Z M 16 14.5 C 16.800781 14.5 17.5 15.199219 17.5 16 C 17.5 16.800781 16.800781 17.5 16 17.5 C 15.199219 17.5 14.5 16.800781 14.5 16 C 14.5 15.199219 15.199219 14.5 16 14.5 Z "/>
</g>
</svg>
