<?xml version="1.0" encoding="UTF-8"?>
<svg xmlns="http://www.w3.org/2000/svg" xmlns:xlink="http://www.w3.org/1999/xlink" viewBox="0 0 32 32" version="1.1" fill="#111111" width="32px" height="32px">
<g id="surface1" fill="#111111">
<path style=" " d="M 4 4 L 4 6 L 16 6 L 16 10 L 14 10 L 14 20 L 4 20 L 4 22 L 14 22 L 14 28 L 28 28 L 28 26 L 16 26 L 16 12 L 28 12 L 28 10 L 18 10 L 18 4 Z M 9.21875 8.78125 L 7.78125 10.21875 L 9.5625 12 L 4 12 L 4 14 L 9.5625 14 L 7.78125 15.78125 L 9.21875 17.21875 L 12.71875 13.71875 L 13.40625 13 L 12.71875 12.28125 Z M 22.78125 15 L 18.59375 19.1875 L 19.28125 19.90625 L 22.78125 23.40625 L 24.21875 22 L 22.25 20 L 28 20 L 28 18 L 22.625 18 L 24.21875 16.40625 Z " fill="#111111"/>
</g>
</svg>
