<?xml version="1.0"?>
<svg xmlns="http://www.w3.org/2000/svg" viewBox="0 0 32 32" width="32px" height="32px">
    <path style="line-height:normal;text-indent:0;text-align:start;text-decoration-line:none;text-decoration-style:solid;text-decoration-color:#000;text-transform:none;block-progression:tb;isolation:auto;mix-blend-mode:normal" d="M 5 4 L 5 5 L 5 25 L 21 25 L 21 4 L 5 4 z M 22 5.9980469 L 22 8.0839844 L 26.533203 9.4316406 L 22 26 L 16.712891 26 L 23.457031 27.992188 L 28.966797 8.0683594 L 22 5.9980469 z M 7 6 L 19 6 L 19 23 L 7 23 L 7 6 z M 12.878906 11 L 12.578125 11.400391 C 12.578125 11.400391 12.043722 12 11.496094 12 L 11.496094 14 C 12.147603 14 12.577103 13.71802 13 13.46875 L 13 19 L 15 19 L 15 11 L 12.878906 11 z" font-weight="400" font-family="sans-serif" white-space="normal" overflow="visible"/>
</svg>
