<?xml version="1.0" encoding="UTF-8"?>
<svg xmlns="http://www.w3.org/2000/svg" xmlns:xlink="http://www.w3.org/1999/xlink" viewBox="0 0 32 32" version="1.1" width="32px" height="32px">
<g id="surface1">
<path style=" " d="M 16 3.0625 L 15.5 3.34375 L 11.5 5.5625 L 11 5.84375 L 11 11.15625 L 11.5 11.4375 L 15.5 13.65625 L 16 13.9375 L 16.5 13.65625 L 20.5 11.4375 L 21 11.15625 L 21 5.84375 L 20.5 5.5625 L 16.5 3.34375 Z M 16 5.375 L 17.90625 6.4375 L 16 7.46875 L 14.09375 6.4375 Z M 13 8.09375 L 15 9.1875 L 15 11.0625 L 13 9.96875 Z M 19 8.09375 L 19 9.96875 L 17 11.0625 L 17 9.1875 Z M 10 8.34375 L 5 10.96875 L 5 16.625 L 3 17.75 L 3 23.0625 L 3.5 23.34375 L 7.5 25.5625 L 8 25.84375 L 8.5 25.5625 L 12.5 23.34375 L 13 23.0625 L 13 17.75 L 12.5 17.46875 L 8.5 15.25 L 8 14.96875 L 7 15.53125 L 7 12.1875 L 10 10.59375 Z M 22 8.34375 L 22 10.59375 L 25 12.1875 L 25 15.53125 L 24 14.96875 L 23.5 15.25 L 19.5 17.46875 L 19 17.75 L 19 23.0625 L 19.5 23.34375 L 23.5 25.5625 L 24 25.84375 L 24.5 25.5625 L 28.5 23.34375 L 29 23.0625 L 29 17.75 L 27 16.625 L 27 10.96875 Z M 8 17.28125 L 9.90625 18.34375 L 8 19.375 L 6.09375 18.34375 Z M 24 17.28125 L 25.90625 18.34375 L 24 19.375 L 22.09375 18.34375 Z M 5 20 L 7 21.09375 L 7 22.96875 L 5 21.875 Z M 11 20 L 11 21.875 L 9 22.96875 L 9 21.09375 Z M 21 20 L 23 21.09375 L 23 22.96875 L 21 21.875 Z M 27 20 L 27 21.875 L 25 22.96875 L 25 21.09375 Z M 12.25 24.625 L 10.21875 25.75 L 16 28.96875 L 21.78125 25.75 L 19.75 24.625 L 16 26.6875 Z "/>
</g>
</svg>
