<?xml version="1.0" encoding="UTF-8"?>
<svg xmlns="http://www.w3.org/2000/svg" xmlns:xlink="http://www.w3.org/1999/xlink" viewBox="0 0 32 32" version="1.1" width="64px" height="64px">
<g id="surface1">
<path style=" " d="M 6 4 L 6 28 L 26 28 L 26 4 Z M 8 6 L 24 6 L 24 26 L 8 26 Z M 10 9 L 10 11 L 22 11 L 22 9 Z M 10 13 L 10 15 L 18 15 L 18 13 Z M 20 13 L 20 15 L 22 15 L 22 13 Z M 10 17 L 10 19 L 14 19 L 14 17 Z M 20 17 L 20 19 L 22 19 L 22 17 Z M 10 21 L 10 23 L 16 23 L 16 21 Z M 20 21 L 20 23 L 22 23 L 22 21 Z "/>
</g>
</svg>
