<?xml version="1.0" encoding="UTF-8"?>
<svg xmlns="http://www.w3.org/2000/svg" xmlns:xlink="http://www.w3.org/1999/xlink" viewBox="0 0 32 32" version="1.1" width="32px" height="32px">
<g id="surface1">
<path style=" " d="M 4 6 L 4 26 L 28 26 L 28 6 Z M 6 8 L 26 8 L 26 24 L 6 24 Z M 23.28125 10.28125 L 21 12.5625 L 19.71875 11.28125 L 18.28125 12.71875 L 20.28125 14.71875 L 21 15.40625 L 21.71875 14.71875 L 24.71875 11.71875 Z M 8 12 L 8 14 L 16 14 L 16 12 Z M 23.28125 16.28125 L 21 18.5625 L 19.71875 17.28125 L 18.28125 18.71875 L 20.28125 20.71875 L 21 21.40625 L 21.71875 20.71875 L 24.71875 17.71875 Z M 8 18 L 8 20 L 16 20 L 16 18 Z "/>
</g>
</svg>
