<?xml version="1.0" encoding="UTF-8"?>
<svg xmlns="http://www.w3.org/2000/svg" xmlns:xlink="http://www.w3.org/1999/xlink" viewBox="0 0 32 32" version="1.1" width="64px" height="64px">
<g id="surface1">
<path style=" " d="M 5 3 L 5 29 L 27 29 L 27 3 Z M 7 5 L 25 5 L 25 27 L 7 27 Z M 12 8 C 10.894531 8 10 8.894531 10 10 C 10 10.535156 10.21875 11.015625 10.5625 11.375 C 9.632813 11.886719 9 12.875 9 14 L 11 14 C 11 13.433594 11.433594 13 12 13 C 12.566406 13 13 13.433594 13 14 L 15 14 C 15 12.875 14.367188 11.886719 13.4375 11.375 C 13.78125 11.015625 14 10.535156 14 10 C 14 8.894531 13.105469 8 12 8 Z M 17 8 L 17 10 L 23 10 L 23 8 Z M 17 12 L 17 14 L 23 14 L 23 12 Z M 9 18 L 9 20 L 17 20 L 17 18 Z M 19 18 L 19 20 L 23 20 L 23 18 Z M 9 22 L 9 24 L 14 24 L 14 22 Z M 19 22 L 19 24 L 23 24 L 23 22 Z "/>
</g>
</svg>
