<?xml version="1.0" encoding="UTF-8"?>
<svg xmlns="http://www.w3.org/2000/svg" xmlns:xlink="http://www.w3.org/1999/xlink" viewBox="0 0 32 32" version="1.1" fill="#111111" width="64px" height="64px">
<g id="surface1" fill="#111111">
<path style=" " d="M 16.066406 2.652344 L 13.824219 4.65625 L 10.886719 4.003906 L 9.945313 6.859375 L 7.070313 7.765625 L 7.6875 10.714844 L 5.652344 12.933594 L 7.65625 15.175781 L 7.003906 18.113281 L 9.859375 19.058594 L 10 19.496094 L 10 29.476563 L 16 27.078125 L 22 29.476563 L 22 19.3125 L 22.058594 19.140625 L 24.925781 18.234375 L 24.3125 15.285156 L 26.347656 13.066406 L 24.34375 10.824219 L 24.996094 7.882813 L 22.140625 6.945313 L 21.234375 4.070313 L 18.285156 4.6875 Z M 16.050781 5.347656 L 17.691406 6.851563 L 18.191406 6.746094 L 19.871094 6.398438 L 20.535156 8.523438 L 22.652344 9.21875 L 22.171875 11.390625 L 23.652344 13.050781 L 22.148438 14.691406 L 22.601563 16.871094 L 20.480469 17.535156 L 19.78125 19.652344 L 17.609375 19.171875 L 15.949219 20.652344 L 14.308594 19.148438 L 12.128906 19.601563 L 12 19.1875 L 12 19 L 11.941406 19 L 11.464844 17.480469 L 9.347656 16.78125 L 9.828125 14.609375 L 8.347656 12.949219 L 9.851563 11.308594 L 9.398438 9.132813 L 11.519531 8.460938 L 12.21875 6.347656 L 14.390625 6.828125 Z M 16 8 C 13.25 8 11 10.25 11 13 C 11 15.75 13.25 18 16 18 C 18.75 18 21 15.75 21 13 C 21 10.25 18.75 8 16 8 Z M 16 10 C 17.667969 10 19 11.332031 19 13 C 19 14.667969 17.667969 16 16 16 C 14.332031 16 13 14.667969 13 13 C 13 11.332031 14.332031 10 16 10 Z M 13.714844 21.3125 L 15.933594 23.347656 L 18.175781 21.34375 L 20 21.75 L 20 26.523438 L 16 24.921875 L 12 26.523438 L 12 21.671875 Z " fill="#111111"/>
</g>
</svg>
