<?xml version="1.0" encoding="UTF-8"?>
<svg xmlns="http://www.w3.org/2000/svg" xmlns:xlink="http://www.w3.org/1999/xlink" viewBox="0 0 32 32" version="1.1" fill="#111111" width="64px" height="64px">
<g id="surface1" fill="#111111">
<path style=" " d="M 8 4 L 11.8125 13.1875 C 9.527344 14.597656 8 17.125 8 20 C 8 24.40625 11.59375 28 16 28 C 20.40625 28 24 24.40625 24 20 C 24 17.125 22.472656 14.597656 20.1875 13.1875 L 24 4 L 22 4 L 18.46875 12.40625 C 17.890625 12.21875 17.28125 12.082031 16.65625 12.03125 L 20 4 L 18 4 L 14.59375 12.125 C 14.210938 12.195313 13.832031 12.316406 13.46875 12.4375 L 9.96875 4 Z M 12 4 L 14.28125 9.53125 L 15.28125 7.09375 L 14 4 Z M 16 14 C 19.324219 14 22 16.675781 22 20 C 22 23.324219 19.324219 26 16 26 C 12.675781 26 10 23.324219 10 20 C 10 16.675781 12.675781 14 16 14 Z M 12 17 L 12 19 L 13 19 L 13 21 L 12 21 L 12 23 L 20 23 L 20 21 L 19 21 L 19 19 L 20 19 L 20 17 Z M 15 19 L 17 19 L 17 21 L 15 21 Z " fill="#111111"/>
</g>
</svg>
