<?xml version="1.0" encoding="UTF-8"?>
<svg xmlns="http://www.w3.org/2000/svg" xmlns:xlink="http://www.w3.org/1999/xlink" viewBox="0 0 32 32" version="1.1" width="64px" height="64px">
<g id="surface1">
<path style=" " d="M 4 4 L 4 28 L 6 28 L 6 23 L 8.1875 23 C 8.605469 24.15625 9.707031 25 11 25 C 12.292969 25 13.394531 24.15625 13.8125 23 L 28 23 L 28 21 L 13.8125 21 C 13.394531 19.84375 12.292969 19 11 19 C 9.707031 19 8.605469 19.84375 8.1875 21 L 6 21 L 6 17 L 20.1875 17 C 20.605469 18.15625 21.707031 19 23 19 C 24.292969 19 25.394531 18.15625 25.8125 17 L 28 17 L 28 15 L 25.8125 15 C 25.394531 13.84375 24.292969 13 23 13 C 21.707031 13 20.605469 13.84375 20.1875 15 L 6 15 L 6 11 L 13.1875 11 C 13.605469 12.15625 14.707031 13 16 13 C 17.292969 13 18.394531 12.15625 18.8125 11 L 28 11 L 28 9 L 18.8125 9 C 18.394531 7.84375 17.292969 7 16 7 C 14.707031 7 13.605469 7.84375 13.1875 9 L 6 9 L 6 4 Z M 16 9 C 16.5625 9 17 9.4375 17 10 C 17 10.5625 16.5625 11 16 11 C 15.4375 11 15 10.5625 15 10 C 15 9.4375 15.4375 9 16 9 Z M 23 15 C 23.5625 15 24 15.4375 24 16 C 24 16.5625 23.5625 17 23 17 C 22.4375 17 22 16.5625 22 16 C 22 15.4375 22.4375 15 23 15 Z M 11 21 C 11.5625 21 12 21.4375 12 22 C 12 22.5625 11.5625 23 11 23 C 10.4375 23 10 22.5625 10 22 C 10 21.4375 10.4375 21 11 21 Z "/>
</g>
</svg>
