<?xml version="1.0" encoding="UTF-8"?>
<svg xmlns="http://www.w3.org/2000/svg" xmlns:xlink="http://www.w3.org/1999/xlink" viewBox="0 0 32 32" version="1.1" fill="#0e0e0e"><g id="surface1" fill="#0e0e0e"><path style=" " d="M 2 5 C 1.476563 5 0.941406 5.183594 0.5625 5.5625 C 0.183594 5.941406 0 6.476563 0 7 L 0 25 C 0 25.523438 0.183594 26.058594 0.5625 26.4375 C 0.941406 26.816406 1.476563 27 2 27 L 30 27 C 30.523438 27 31.058594 26.816406 31.4375 26.4375 C 31.816406 26.058594 32 25.523438 32 25 L 32 11 C 32 10.476563 31.816406 9.941406 31.4375 9.5625 C 31.058594 9.183594 30.523438 9 30 9 L 28 9 L 28 7 C 28 6.476563 27.816406 5.941406 27.4375 5.5625 C 27.058594 5.183594 26.523438 5 26 5 Z M 2 7 L 26 7 L 26 9 L 22 9 C 21.476563 9 20.941406 9.183594 20.5625 9.5625 C 20.183594 9.941406 20 10.476563 20 11 L 20 25 L 2 25 Z M 22 11 L 30 11 L 30 25 L 22 25 Z M 12 22 L 12 24 L 16 24 L 16 22 Z M 24 22 L 24 24 L 28 24 L 28 22 Z " fill="#0e0e0e"/></g></svg>
