<?xml version="1.0" encoding="UTF-8"?>
<svg xmlns="http://www.w3.org/2000/svg" xmlns:xlink="http://www.w3.org/1999/xlink" viewBox="0 0 32 32" version="1.1" width="32px" height="32px">
<g id="surface1">
<path style=" " d="M 16 4 C 14.328125 4 12.855469 4.828125 11.949219 6.09375 C 11.632813 6.03125 11.316406 6 11 6 C 9.71875 6 8.441406 6.488281 7.464844 7.464844 C 6.246094 8.683594 5.789063 10.375 6.089844 11.949219 C 4.828125 12.855469 4 14.328125 4 16 C 4 17.671875 4.828125 19.144531 6.09375 20.050781 C 5.789063 21.625 6.246094 23.316406 7.464844 24.535156 C 8.441406 25.511719 9.71875 26 11 26 C 11.316406 26 11.636719 25.96875 11.949219 25.90625 C 12.855469 27.171875 14.328125 28 16 28 C 17.671875 28 19.144531 27.171875 20.050781 25.90625 C 20.367188 25.96875 20.683594 26 21 26 C 22.28125 26 23.558594 25.511719 24.535156 24.535156 C 25.753906 23.316406 26.210938 21.625 25.910156 20.050781 C 27.171875 19.144531 28 17.671875 28 16 C 28 14.328125 27.171875 12.855469 25.90625 11.949219 C 26.210938 10.375 25.753906 8.683594 24.535156 7.464844 C 23.558594 6.488281 22.28125 6 21 6 C 20.683594 6 20.363281 6.03125 20.050781 6.09375 C 19.144531 4.828125 17.671875 4 16 4 Z M 16 6 C 16.96875 6 17.855469 6.460938 18.429688 7.257813 L 19.175781 8.296875 L 20.429688 8.054688 C 20.617188 8.019531 20.8125 8 21 8 C 21.804688 8 22.554688 8.3125 23.121094 8.878906 C 23.824219 9.582031 24.132813 10.589844 23.945313 11.570313 L 23.703125 12.828125 L 24.742188 13.574219 C 25.542969 14.148438 26 15.03125 26 16 C 26 16.96875 25.539063 17.855469 24.738281 18.429688 L 23.703125 19.175781 L 23.945313 20.429688 C 24.132813 21.410156 23.824219 22.417969 23.121094 23.121094 C 22.554688 23.6875 21.804688 24 21 24 C 20.8125 24 20.617188 23.980469 20.429688 23.945313 L 19.175781 23.703125 L 18.429688 24.742188 C 17.855469 25.542969 16.96875 26 16 26 C 15.03125 26 14.144531 25.539063 13.570313 24.738281 L 12.824219 23.703125 L 11.570313 23.945313 C 11.382813 23.980469 11.1875 24 11 24 C 10.195313 24 9.445313 23.6875 8.878906 23.121094 C 8.175781 22.417969 7.867188 21.410156 8.054688 20.429688 L 8.296875 19.171875 L 7.257813 18.425781 C 6.460938 17.851563 6 16.96875 6 16 C 6 15.03125 6.460938 14.144531 7.257813 13.570313 L 8.296875 12.824219 L 8.054688 11.570313 C 7.867188 10.589844 8.175781 9.582031 8.878906 8.878906 C 9.445313 8.3125 10.195313 8 11 8 C 11.1875 8 11.382813 8.019531 11.570313 8.054688 L 12.824219 8.296875 L 13.570313 7.257813 C 14.144531 6.457031 15.03125 6 16 6 Z M 19.5625 13 L 15 17.5625 L 12.4375 15 L 11 16.4375 L 14.28125 19.71875 L 15 20.40625 L 15.71875 19.71875 L 21 14.4375 Z "/>
</g>
</svg>
